PathFileType	4	(X/Y/Z)	Patient4_TMGait_0pt4_01_right_09.trc.trc
DataRate	CameraRate	NumFrames	NumMarkers	Units	OrigDataRate	OrigDataStartFrame	OrigNumFrames
73.684210526316	73.684210526316	6	33	mm	73.684210526316	71	       141
Frame#	Time	Sacral			L.Shoulder			Chest			R.Shoulder			Neck			R.ASIS			L.ASIS			R.Thigh.Superior			R.Thigh.Lateral			R.Thigh.Inferior			R.Patella			L.Thigh.Superior			L.Thigh.Lateral			L.Thigh.Inferior			L.Patella			L.Shank.Superior			L.Shank.Lateral			L.Shank.Inferior			R.Shank.Superior			R.Shank.Lateral			R.Shank.Inferior			R.Heel			R.Midfoot.Superior			R.Midfoot.Lateral			R.Toe			L.Heel			L.Midfoot.Lateral			L.Midfoot.Superior			L.Toe			L.Elbow			L.Wrist			R.Elbow			R.Wrist			
		X1	Y1	Z1	X2	Y2	Z2	X3	Y3	Z3	X4	Y4	Z4	X5	Y5	Z5	X6	Y6	Z6	X7	Y7	Z7	X8	Y8	Z8	X9	Y9	Z9	X10	Y10	Z10	X11	Y11	Z11	X12	Y12	Z12	X13	Y13	Z13	X14	Y14	Z14	X15	Y15	Z15	X16	Y16	Z16	X17	Y17	Z17	X18	Y18	Z18	X19	Y19	Z19	X20	Y20	Z20	X21	Y21	Z21	X22	Y22	Z22	X23	Y23	Z23	X24	Y24	Z24	X25	Y25	Z25	X26	Y26	Z26	X27	Y27	Z27	X28	Y28	Z28	X29	Y29	Z29	X30	Y30	Z30	X31	Y31	Z31	X32	Y32	Z32	X33	Y33	Z33	

71	12.280000000000	786.913285768480	1001.022078775401	546.012751800488	939.056336538351	1431.284158541231	355.066086271101	1060.037961660986	1364.122357571491	503.133790710622	996.533626416820	1434.767718380846	686.771333131601	940.563588768346	1492.552819871587	511.455099835205	1022.681989184439	937.709590481487	646.069024855738	990.774479066815	961.036121156252	372.042859567281	1023.000097915285	726.715382029457	617.182170385425	919.123615027660	630.027864551052	677.481737924268	980.810464154779	566.678437686847	597.855865993916	962.132801534173	482.672165990869	601.600769698352	1066.459706239948	771.393445868452	400.185351487691	1010.598204656135	640.282862634059	329.536253877853	1113.667234265013	580.713801669964	388.980856805425	1134.068059320076	511.620102223349	389.056825426236	1112.365266625876	438.008868982183	380.580879925848	1034.216448461139	314.875056710575	330.359622010685	1108.923460800526	207.852250247822	387.563849975088	924.463898692075	397.691252728692	606.282837059534	840.468332704127	301.603522290702	665.731120828356	872.843801746641	203.980905112434	599.656324635861	725.566413467694	43.875074458100	563.340173442060	898.289787777416	96.830957289917	599.772203440265	809.131693265710	35.967062379104	637.016374128574	1017.326328342618	42.786967079180	624.866055118086	1005.729208167064	42.018043119676	426.453637417195	1079.401454532015	39.446034571317	346.474924322937	1160.171393665902	105.095025073159	369.377532634447	1288.994862800941	58.339700896949	341.802501264108	822.495328694386	1092.509243651983	269.612874796013	810.595631001037	831.782274814675	280.798389631447	1108.793518796246	1111.896826606814	811.642415217808	1360.447637252400	1079.367544756046	778.405022196789	
72	12.293571428571	788.129298651213	1000.417112570352	543.524649732781	939.723893872345	1430.453381632920	352.529843068227	1060.650537490930	1363.767230505662	500.896091220478	996.550547942172	1434.470203833499	684.361367645416	940.910403043360	1491.995450645567	508.886863958896	1023.742169222821	937.098626063944	644.293369575076	992.497331002719	960.159267641948	370.437985090705	1023.446289803780	725.858380141043	615.970294294929	918.746767232837	629.767678349062	676.111575412217	980.271253423045	565.806099437537	596.811533335285	960.900721242281	481.666146203806	600.478437536862	1067.726697723257	769.459861667959	399.399027289226	1010.514308232052	638.588081108846	329.724483740105	1113.035902463618	578.674910325705	389.826408954893	1132.107110217849	508.810180745602	390.573933056339	1109.756618737424	435.103270663031	381.949600257682	1030.190314134032	312.868975050110	331.830965175092	1102.671009028995	204.913742544276	389.800861090145	922.404765040754	397.082459074127	605.465736479839	837.369384379613	302.058747575613	665.180991815209	868.734576538201	203.895851302117	599.480279093066	720.191753298891	44.520677494917	563.626403726821	893.047217164667	96.804941975340	599.810868548347	803.786667061474	36.077876523358	637.110527297788	1011.954184039007	42.353871375636	624.869772749137	996.451346030816	40.986518350880	428.026566785084	1070.403825733429	38.206562046025	348.242814023563	1152.260142779477	102.026285706246	372.306408394340	1280.708217866801	53.102106707868	344.689592456173	825.161028101226	1091.083398724133	266.295336784072	816.522836132367	830.098885444484	276.091953356645	1106.810757894107	1110.848880830588	809.837053040346	1358.058121216744	1075.532469133735	775.882338937370	
73	12.307142857143	789.351443868820	1000.027487368992	540.907524056280	940.645013541586	1429.794440062236	349.877753958592	1061.443294043490	1363.522462277673	498.572328228248	996.741330639048	1434.323182376940	681.843102993404	941.444843527341	1491.599283870844	506.196740196848	1024.787956878165	936.594367641834	642.285548622652	994.145103757214	959.480272330502	368.658715986387	1023.991521137605	725.145175109755	614.619385805747	918.552599815508	629.625651739304	674.625367548181	979.995411562010	565.065469054663	595.675369445994	959.953903790428	480.723486921455	599.304578526930	1068.767858522728	767.635999478667	398.559345592158	1010.371751022371	637.230114684466	329.552064352877	1112.178575450466	576.854046963495	390.531372058556	1130.013153682090	506.359527142271	391.826338138336	1107.171175699378	432.619166178457	382.934233412922	1026.569635147193	311.161908450776	332.763334881647	1096.931520219243	202.451546613144	391.543631329977	920.570173143629	396.565191407726	604.617675087245	834.414915727706	302.698066575769	664.590136039957	864.763725999864	203.957214209163	599.334787661444	714.867021067076	45.459099286492	563.972341419690	887.899358974126	96.842407182696	599.902326891603	798.489988188006	36.300839958944	637.236007405530	1006.623177467107	41.862876795383	624.879454094287	988.063076104271	40.070780580224	429.012007639091	1062.331756646892	37.315169250011	349.456383864481	1144.956974194141	99.675766518566	374.649461396658	1273.195414160998	49.066453258145	347.062122656143	828.511388916917	1089.696776280810	262.710779994086	823.523830462721	828.473521461244	271.019747766892	1104.287344702131	1109.745182985732	808.052026041055	1354.979143891399	1070.617037407583	773.558371795288	
74	12.320714285714	790.544851361206	999.899845759716	538.186030268710	941.819276927429	1429.360833317600	347.141287525152	1062.416436425589	1363.406208345974	496.177422890529	997.146162517763	1434.360929612523	679.232619119331	942.180234660303	1491.400136666306	503.411801896938	1025.780453653954	936.236436243481	640.048972589333	995.656759763585	959.052571963700	366.675211129781	1024.583808108753	724.625285922114	613.091986822512	918.538976974995	629.629605814786	673.023467983965	979.991448812959	564.497991798681	594.441187745889	959.329504690561	479.864864408820	598.105307392029	1069.580472219162	766.078149707552	397.605966438055	1010.216737037245	636.286886120048	328.976142620080	1111.171142889276	575.360038572634	390.956218979309	1127.875842770708	504.376492755701	392.680766251034	1104.691629627833	430.636458796756	383.474080720591	1023.409576517817	309.830572951075	333.122355170830	1091.773591570925	200.544208814417	392.760410053347	918.981462206390	396.162601899013	603.751658538600	831.624081088677	303.547608922255	663.963740923223	860.951737037195	204.190960983248	599.224196107319	709.603124885356	46.735652585957	564.372731239897	882.869560769766	96.963954904323	600.062636810587	793.246628711200	36.664678516304	637.392246634340	1001.338475665278	41.320501138858	624.895473626081	980.641306337485	39.342894065932	429.503227508110	1055.212199688987	36.759572441631	350.169537996998	1138.323796805220	98.049404033953	376.352406157044	1266.482780080116	46.203274252149	348.819129420029	832.502714356949	1088.436988225272	258.886147764447	831.561708328015	827.015826856739	265.625618676443	1101.256396291263	1108.633082324935	806.252357202226	1351.182122547501	1064.592430212926	771.422721280256	
75	12.334285714286	791.684133714322	1000.054999303717	535.371622838884	943.229232485356	1429.188307052344	344.350182906366	1063.557833611673	1363.426637914828	493.725215975964	997.783241549650	1434.598816704147	676.546728863576	943.114669404160	1491.416565251680	500.560555302405	1026.690798020013	936.055328130487	637.598862023142	996.999108787012	958.905835939017	364.460961308910	1025.177443467399	724.335755228905	611.366204642997	918.698932000245	629.798154738883	671.314082912369	980.262828014869	564.132607364798	593.115778531569	959.062662002916	479.099293266097	596.922081250021	1070.188073740446	764.906978248041	396.469308841482	1010.086328638256	635.785123393271	327.984856968491	1110.081139841341	574.238529941449	390.978007390780	1125.750149112899	502.890676715642	393.047891674590	1102.348464355456	429.163398125439	383.560834675879	1020.673559387729	308.895927831408	332.933549471706	1087.158564935973	199.195531886121	393.479622679848	917.654472304704	395.889430612682	602.888946498724	829.010220853913	304.622646917607	663.309748771547	857.312715390062	204.613894980361	599.154753957874	704.409034090436	48.377112879035	564.817123786913	877.977832932823	97.185275020271	600.305002878653	788.058983448921	37.191506357326	637.575751110588	996.100591792235	40.739862644499	624.916819541755	974.113386505900	38.836944796290	429.616137377655	1048.938909860773	36.491601128150	350.472366071149	1132.311634108536	97.071276524474	377.440739472441	1260.479959718010	44.363362920322	349.954269333882	837.061234766215	1087.380036466136	254.845238489761	840.597799047910	825.827684472773	259.953220246388	1097.760368352160	1107.553276402090	804.405786028437	1346.632342334187	1057.445743336660	769.464141961003	
76	12.347857142857	792.754366657244	1000.484359779678	532.459409076132	944.842919433708	1429.289840090110	341.527889422992	1064.842739008465	1363.582065720364	491.227838764402	998.640900639144	1435.029875688909	673.801866371502	944.231081087342	1491.647814701912	497.669275861724	1027.503074983785	936.067900437828	634.960928342352	998.171912978149	959.042350560336	361.999686352012	1025.743111910033	724.294980134189	609.439928311842	919.023968254185	630.136335013455	669.510924809063	980.810611760211	563.980560081599	591.717262627459	959.186159325632	478.421368734422	595.805595992455	1070.634507238574	764.182435912043	395.076928710384	1009.979945653194	635.690260142131	326.604474259555	1108.944704796199	573.463929918637	390.511636227246	1123.647354953795	501.856910491688	392.901476985221	1100.119148618169	428.145145716887	383.236693721527	1018.252556815840	308.324025059483	332.279166420676	1082.973715251846	198.344883752020	393.778928636615	916.601187089066	395.748823329426	602.055014945288	826.582748949516	305.925420635947	662.636619410892	853.855537170458	205.231008981842	599.132590123931	699.291511658329	50.388707266205	565.291103529331	873.238327413977	97.512393902532	600.635395972866	782.927072646858	37.894039438284	637.780048999926	990.905487774221	40.140620883073	624.940857927723	968.310057609385	38.548855244285	429.472143531199	1043.325859280289	36.442396134765	350.473193170043	1126.799467547680	96.612576028567	378.003399804696	1255.026997878261	43.329679288323	350.537872517298	842.085864192856	1086.581990975458	250.607196393650	850.589229707199	824.996453735320	254.046693365700	1093.850967865887	1106.534531827026	802.483436132282	1341.290168428832	1049.183728611939	767.672440392292	
